<svg width="155" height="48" viewBox="0 0 155 48" fill="none" xmlns="http://www.w3.org/2000/svg">
<path d="M18.6883 16.2056H22.6727L21.167 23.2895H21.4013L28.6024 16.2056H33.3367L25.6925 23.6105L29.9025 32.8035H25.1212L22.2307 26.224L20.1095 28.2643L19.1447 32.8035H15.1603L18.6883 16.2056ZM34.8219 20.3551H38.7829L36.1369 32.8035H32.1759L34.8219 20.3551ZM37.1309 18.8649C36.7637 18.8649 36.4409 18.7847 36.1625 18.6242C35.8857 18.4561 35.6837 18.2307 35.5563 17.9479C35.4383 17.6575 35.415 17.3442 35.4865 17.008C35.558 16.6717 35.7136 16.3623 35.9534 16.0795C36.2026 15.7891 36.5005 15.5637 36.8471 15.4032C37.1954 15.2351 37.5531 15.151 37.9203 15.151C38.2875 15.151 38.6094 15.2351 38.8862 15.4032C39.1724 15.5637 39.3784 15.7891 39.5042 16.0795C39.6316 16.3623 39.6595 16.6717 39.5881 17.008C39.5166 17.3442 39.3563 17.6575 39.107 17.9479C38.8594 18.2307 38.5576 18.4561 38.2016 18.6242C37.855 18.7847 37.4981 18.8649 37.1309 18.8649ZM42.6291 32.8035H38.6681L42.1961 16.2056H46.1571L42.6291 32.8035ZM49.1212 32.8035H45.1603L48.6883 16.2056H52.6492L49.1212 32.8035ZM57.5335 33.0328C56.2131 33.0328 55.123 32.7768 54.2631 32.2648C53.4126 31.7452 52.8311 31.0077 52.5185 30.0525C52.2075 29.0896 52.1917 27.951 52.4711 26.6366C52.7424 25.3604 53.239 24.2371 53.9609 23.2666C54.6844 22.2885 55.5757 21.5319 56.6347 20.997C57.7015 20.4621 58.8639 20.1946 60.1217 20.1946C61.3248 20.1946 62.3353 20.4391 63.1532 20.9282C63.979 21.4173 64.5481 22.1394 64.8607 23.0947C65.1811 24.0499 65.1984 25.2 64.9125 26.5449L64.703 27.5307H56.1717L56.1571 27.5995C55.9865 28.4019 56.0845 29.0438 56.4509 29.5252C56.8189 29.999 57.4014 30.2359 58.1983 30.2359C58.7295 30.2359 59.2085 30.1327 59.6351 29.9264C60.0713 29.7124 60.4111 29.4182 60.6548 29.0438H64.3345C64.006 29.8538 63.516 30.5607 62.8642 31.1644C62.2141 31.7604 61.4322 32.2228 60.5186 32.5514C59.6144 32.8723 58.6194 33.0328 57.5335 33.0328ZM61.5057 25.2611C61.5905 24.8255 61.5678 24.4358 61.4378 24.0919C61.3078 23.748 61.0834 23.4806 60.7646 23.2895C60.4475 23.0908 60.0662 22.9915 59.6209 22.9915C59.16 22.9915 58.7209 23.0908 58.3037 23.2895C57.8943 23.4882 57.5436 23.7595 57.2518 24.1034C56.9599 24.4473 56.7607 24.8332 56.6541 25.2611H61.5057ZM68.2672 20.3551H72.111L71.6335 22.6018H71.7506C72.1461 21.807 72.6495 21.2033 73.2606 20.7907C73.8796 20.378 74.5484 20.1717 75.2672 20.1717C75.5797 20.1717 75.9449 20.2175 76.3629 20.3092L75.6466 23.6793C75.4783 23.6258 75.245 23.5837 74.9469 23.5532C74.6503 23.515 74.3731 23.4959 74.1153 23.4959C73.6231 23.4959 73.1589 23.6028 72.7228 23.8168C72.2962 24.0231 71.9329 24.3173 71.6329 24.6994C71.3346 25.0739 71.1334 25.5056 71.0294 25.9947L69.5822 32.8035H65.6212L68.2672 20.3551ZM88.8586 21.616C88.8049 20.9129 88.5413 20.3704 88.0679 19.9883C87.5944 19.6062 86.9436 19.4151 86.1155 19.4151C85.2874 19.4151 84.5225 19.6138 83.8208 20.0112C83.127 20.4086 82.5309 20.9894 82.0325 21.7535C81.5436 22.5101 81.1862 23.4194 80.9604 24.4816C80.7314 25.5591 80.6958 26.48 80.8537 27.2441C81.0116 28.0083 81.3522 28.5929 81.8755 28.9979C82.4004 29.3953 83.0925 29.594 83.9519 29.594C85.0691 29.594 85.9962 29.3304 86.7333 28.8031C87.472 28.2681 87.9497 27.546 88.1664 26.6366H84.7446L85.3537 23.771H92.6193L92.1564 25.9489C91.8494 27.3932 91.2658 28.6502 90.4056 29.7201C89.5453 30.7899 88.4879 31.6114 87.2333 32.1846C85.9881 32.75 84.6428 33.0328 83.1975 33.0328C81.5881 33.0328 80.2433 32.6889 79.1629 32.0012C78.0825 31.3134 77.3389 30.3276 76.9321 29.0438C76.5253 27.76 76.5055 26.2545 76.8726 24.5275C77.2478 22.7622 77.9234 21.2377 78.8994 19.9539C79.8848 18.6624 81.0592 17.6766 82.4225 16.9965C83.7937 16.3164 85.237 15.9763 86.7527 15.9763C88.0417 15.9763 89.1663 16.2171 90.1265 16.6985C91.0945 17.1799 91.8235 17.8486 92.3134 18.7045C92.8034 19.5603 93.0033 20.5308 92.9133 21.616H88.8586ZM95.736 20.3551H99.5797L99.1022 22.6018H99.2194C99.6149 21.807 100.118 21.2033 100.729 20.7907C101.348 20.378 102.017 20.1717 102.736 20.1717C103.048 20.1717 103.414 20.2175 103.832 20.3092L103.115 23.6793C102.947 23.6258 102.714 23.5837 102.416 23.5532C102.119 23.515 101.842 23.4959 101.584 23.4959C101.092 23.4959 100.628 23.6028 100.192 23.8168C99.7649 24.0231 99.4016 24.3173 99.1016 24.6994C98.8033 25.0739 98.6022 25.5056 98.4982 25.9947L97.0509 32.8035H93.09L95.736 20.3551ZM102.451 29.3418C102.724 28.058 103.359 27.1104 104.356 26.4991C105.353 25.8877 106.564 25.5362 107.99 25.4445C108.703 25.3987 109.571 25.3604 110.593 25.3299C110.721 25.3146 110.879 25.307 111.066 25.307L111.281 24.2982C111.373 23.8627 111.292 23.5302 111.036 23.301C110.781 23.0641 110.381 22.9456 109.834 22.9456C109.303 22.9456 108.854 23.0526 108.488 23.2666C108.122 23.4806 107.857 23.7939 107.691 24.2065H104.011C104.225 23.4576 104.619 22.7813 105.192 22.1776C105.775 21.5663 106.518 21.0849 107.421 20.7334C108.334 20.3742 109.364 20.1946 110.512 20.1946C111.575 20.1946 112.493 20.3589 113.267 20.6875C114.05 21.0085 114.618 21.4822 114.969 22.1089C115.329 22.7279 115.417 23.4729 115.232 24.3441L113.434 32.8035H109.707L110.078 31.0612H109.984C109.488 31.7031 108.896 32.1922 108.207 32.5284C107.518 32.8647 106.737 33.0328 105.862 33.0328C105.033 33.0328 104.332 32.8952 103.758 32.6201C103.191 32.345 102.787 31.9324 102.544 31.3822C102.311 30.8243 102.28 30.1442 102.451 29.3418ZM106.235 29.1813C106.147 29.594 106.228 29.9111 106.478 30.1327C106.736 30.3543 107.11 30.4652 107.603 30.4652C108.048 30.4652 108.473 30.3773 108.877 30.2015C109.282 30.0258 109.623 29.7812 109.901 29.4679C110.18 29.1469 110.358 28.784 110.437 28.3789L110.607 27.5766H110.373C110.056 27.5995 109.655 27.6262 109.172 27.6568C108.691 27.6797 108.355 27.6988 108.164 27.7141C107.651 27.7752 107.222 27.9357 106.878 28.1955C106.535 28.4477 106.321 28.7763 106.235 29.1813ZM118.494 20.3551H122.244L121.761 22.6247H121.902C122.338 21.8605 122.914 21.2645 123.63 20.8365C124.354 20.4086 125.153 20.1946 126.028 20.1946C126.911 20.1946 127.618 20.4162 128.148 20.8594C128.681 21.295 128.95 21.8834 128.957 22.6247H129.097C129.505 21.8834 130.099 21.295 130.879 20.8594C131.668 20.4162 132.528 20.1946 133.458 20.1946C134.254 20.1946 134.921 20.3665 135.457 20.7104C136.003 21.0467 136.376 21.5319 136.578 22.1662C136.787 22.8005 136.799 23.5493 136.616 24.4129L134.832 32.8035H130.871L132.47 25.284C132.601 24.665 132.535 24.1874 132.27 23.8512C132.015 23.5073 131.618 23.3354 131.079 23.3354C130.509 23.3354 130.021 23.5188 129.614 23.8856C129.218 24.2447 128.955 24.7262 128.827 25.3299L127.238 32.8035H123.442L125.05 25.2382C125.173 24.6574 125.107 24.1951 124.852 23.8512C124.597 23.5073 124.204 23.3354 123.673 23.3354C123.118 23.3354 122.628 23.5264 122.203 23.9085C121.786 24.2906 121.511 24.795 121.378 25.4216L119.809 32.8035H115.848L118.494 20.3551Z" fill="#9EFF00"/>
</svg>
