<svg width="254" height="53" viewBox="0 0 254 53" fill="none" xmlns="http://www.w3.org/2000/svg">
<path d="M11.5198 11.2258H19.1565L16.2705 24.8033H16.7197L30.5217 11.2258H39.5959L24.9444 25.4185L33.0136 43.0385H23.8496L18.3094 30.4276L14.2438 34.3383L12.3945 43.0385H4.75777L11.5198 11.2258ZM43.3626 19.179H50.9543L45.8828 43.0385H38.291L43.3626 19.179ZM47.788 16.3228C47.0842 16.3228 46.4655 16.169 45.932 15.8615C45.4015 15.5392 45.0142 15.1072 44.77 14.5652C44.5439 14.0087 44.4993 13.4081 44.6363 12.7637C44.7733 12.1192 45.0716 11.526 45.5312 10.9841C46.0089 10.4275 46.5799 9.99545 47.2442 9.68786C47.9117 9.36564 48.5973 9.20452 49.301 9.20452C50.0048 9.20452 50.6219 9.36564 51.1524 9.68786C51.701 9.99545 52.0958 10.4275 52.3368 10.9841C52.581 11.526 52.6346 12.1192 52.4976 12.7637C52.3607 13.4081 52.0533 14.0087 51.5757 14.5652C51.1011 15.1072 50.5226 15.5392 49.8402 15.8615C49.1758 16.169 48.4918 16.3228 47.788 16.3228ZM59.2462 43.0385H51.6544L58.4164 11.2258H66.0082L59.2462 43.0385ZM72.6096 43.0385H65.0178L71.7798 11.2258H79.3716L72.6096 43.0385ZM89.653 43.4779C87.1224 43.4779 85.033 42.9872 83.3848 42.0059C81.7547 41.0099 80.6401 39.5965 80.041 37.7657C79.445 35.9202 79.4147 33.7378 79.9502 31.2186C80.4701 28.7726 81.4219 26.6195 82.8055 24.7594C84.1923 22.8846 85.9006 21.4346 87.9304 20.4093C89.9751 19.384 92.2029 18.8714 94.6137 18.8714C96.9197 18.8714 98.8565 19.3401 100.424 20.2775C102.007 21.2148 103.098 22.599 103.697 24.4298C104.311 26.2607 104.344 28.465 103.796 31.0428L103.395 32.9322H87.043L87.0149 33.0641C86.688 34.602 86.8757 35.8323 87.578 36.755C88.2835 37.6631 89.3998 38.1172 90.9272 38.1172C91.9454 38.1172 92.8634 37.9195 93.6812 37.524C94.5171 37.1139 95.1685 36.55 95.6355 35.8323H102.688C102.059 37.3849 101.119 38.7397 99.8702 39.8968C98.6241 41.0392 97.1256 41.9253 95.3745 42.5552C93.6415 43.1703 91.7343 43.4779 89.653 43.4779ZM97.2664 28.5822C97.4289 27.7473 97.3855 27.0003 97.1363 26.3412C96.8871 25.6821 96.457 25.1695 95.846 24.8033C95.2381 24.4225 94.5075 24.2321 93.6539 24.2321C92.7705 24.2321 91.9289 24.4225 91.1292 24.8033C90.3445 25.1841 89.6724 25.7041 89.1131 26.3632C88.5537 27.0223 88.1719 27.7619 87.9676 28.5822H97.2664ZM111.146 19.179H118.513L117.598 23.4851H117.823C118.581 21.9618 119.545 20.8047 120.717 20.0138C121.903 19.2229 123.185 18.8274 124.563 18.8274C125.162 18.8274 125.862 18.9153 126.663 19.0911L125.29 25.5503C124.967 25.4478 124.52 25.3672 123.949 25.3086C123.38 25.2354 122.849 25.1988 122.355 25.1988C121.411 25.1988 120.522 25.4038 119.686 25.8139C118.868 26.2094 118.172 26.7733 117.597 27.5056C117.025 28.2233 116.64 29.0509 116.44 29.9882L113.666 43.0385H106.075L111.146 19.179ZM151.533 21.5957C151.43 20.2482 150.925 19.2082 150.017 18.4759C149.11 17.7436 147.862 17.3774 146.275 17.3774C144.688 17.3774 143.222 17.7582 141.877 18.5198C140.547 19.2815 139.405 20.3946 138.449 21.8593C137.512 23.3093 136.827 25.0523 136.395 27.0882C135.956 29.1534 135.888 30.9183 136.19 32.383C136.493 33.8477 137.146 34.9681 138.148 35.7444C139.155 36.506 140.481 36.8869 142.128 36.8869C144.27 36.8869 146.047 36.3815 147.459 35.3709C148.875 34.3457 149.791 32.9615 150.206 31.2186H143.648L144.815 25.726H158.741L157.854 29.9004C157.265 32.6686 156.147 35.078 154.498 37.1285C152.849 39.1791 150.822 40.7536 148.418 41.8521C146.031 42.936 143.453 43.4779 140.682 43.4779C137.598 43.4779 135.02 42.8188 132.949 41.5006C130.879 40.1824 129.453 38.2929 128.674 35.8323C127.894 33.3716 127.856 30.4862 128.56 27.1761C129.279 23.7927 130.574 20.8707 132.444 18.41C134.333 15.9347 136.584 14.0453 139.197 12.7417C141.825 11.4381 144.592 10.7864 147.496 10.7864C149.967 10.7864 152.123 11.2477 153.963 12.1705C155.818 13.0932 157.215 14.3748 158.155 16.0153C159.094 17.6557 159.477 19.5158 159.304 21.5957H151.533ZM165.635 19.179H173.002L172.086 23.4851H172.311C173.069 21.9618 174.034 20.8047 175.205 20.0138C176.391 19.2229 177.673 18.8274 179.051 18.8274C179.65 18.8274 180.35 18.9153 181.151 19.0911L179.778 25.5503C179.456 25.4478 179.009 25.3672 178.437 25.3086C177.869 25.2354 177.337 25.1988 176.843 25.1988C175.9 25.1988 175.01 25.4038 174.174 25.8139C173.357 26.2094 172.66 26.7733 172.085 27.5056C171.514 28.2233 171.128 29.0509 170.929 29.9882L168.155 43.0385H160.563L165.635 19.179ZM179.425 36.4035C179.948 33.9429 181.165 32.1267 183.076 30.9549C184.987 29.7832 187.309 29.1094 190.042 28.9337C191.408 28.8458 193.071 28.7726 195.03 28.714C195.276 28.6847 195.578 28.67 195.938 28.67L196.348 26.7367C196.526 25.9018 196.369 25.2647 195.879 24.8253C195.391 24.3712 194.623 24.1442 193.575 24.1442C192.557 24.1442 191.697 24.3493 190.996 24.7594C190.295 25.1695 189.786 25.77 189.468 26.5609H182.415C182.825 25.1255 183.58 23.8293 184.679 22.6722C185.797 21.5005 187.221 20.5777 188.951 19.904C190.7 19.2156 192.675 18.8714 194.876 18.8714C196.912 18.8714 198.672 19.1863 200.155 19.8161C201.657 20.4312 202.744 21.3393 203.417 22.5404C204.108 23.7268 204.276 25.1548 203.922 26.8246L200.475 43.0385H193.333L194.042 39.699H193.863C192.912 40.9294 191.777 41.8668 190.457 42.5112C189.137 43.1557 187.639 43.4779 185.962 43.4779C184.375 43.4779 183.031 43.2143 181.93 42.687C180.844 42.1597 180.069 41.3688 179.604 40.3142C179.158 39.245 179.098 37.9414 179.425 36.4035ZM186.677 36.0959C186.509 36.8869 186.665 37.4947 187.143 37.9195C187.637 38.3442 188.356 38.5566 189.299 38.5566C190.152 38.5566 190.967 38.3882 191.742 38.0513C192.518 37.7144 193.171 37.2457 193.703 36.6452C194.238 36.03 194.581 35.3343 194.731 34.558L195.058 33.0201H194.609C194 33.0641 193.233 33.1153 192.307 33.1739C191.385 33.2179 190.74 33.2545 190.375 33.2838C189.392 33.4009 188.57 33.7085 187.91 34.2065C187.253 34.6899 186.842 35.3197 186.677 36.0959ZM211.094 19.179H218.281L217.357 23.529H217.626C218.461 22.0644 219.565 20.9219 220.938 20.1017C222.325 19.2815 223.857 18.8714 225.534 18.8714C227.226 18.8714 228.581 19.2961 229.598 20.1456C230.619 20.9805 231.135 22.1083 231.148 23.529H231.417C232.198 22.1083 233.336 20.9805 234.832 20.1456C236.345 19.2961 237.992 18.8714 239.774 18.8714C241.302 18.8714 242.579 19.2009 243.607 19.86C244.653 20.5045 245.369 21.4346 245.754 22.6502C246.155 23.8659 246.179 25.3013 245.827 26.9564L242.409 43.0385H234.817L237.881 28.6261C238.133 27.4397 238.005 26.5243 237.498 25.8798C237.01 25.2207 236.249 24.8912 235.215 24.8912C234.122 24.8912 233.187 25.2427 232.408 25.9457C231.648 26.6341 231.145 27.5569 230.899 28.714L227.854 43.0385H220.577L223.659 28.5382C223.896 27.4251 223.769 26.5389 223.281 25.8798C222.792 25.2207 222.038 24.8912 221.02 24.8912C219.957 24.8912 219.018 25.2573 218.204 25.9897C217.404 26.722 216.877 27.6887 216.621 28.8897L213.614 43.0385H206.022L211.094 19.179Z" fill="#9EFF00"/>
</svg>
